<svg xmlns="http://www.w3.org/2000/svg" xmlns:xlink="http://www.w3.org/1999/xlink" version="1.1" width="1000" height="1000" viewBox="0 0 1000 1000" xml:space="preserve">
<desc>Created with Fabric.js 3.5.0</desc>
<defs>
</defs>
<rect x="0" y="0" width="100%" height="100%" fill="#ffffff"/>
<g transform="matrix(7.6587 0 0 7.6587 501.39 501.3901)" id="298794">
<path style="stroke: none; stroke-width: 1; stroke-dasharray: none; stroke-linecap: butt; stroke-dashoffset: 0; stroke-linejoin: miter; stroke-miterlimit: 4; is-custom-font: none; font-file-url: none; fill: rgb(24,106,165); fill-rule: nonzero; opacity: 1;" vector-effect="non-scaling-stroke" transform=" translate(-61.44, -61.445)" d="M 61.44 0 c 8.32 0 16.25 1.66 23.5 4.66 l 0.11 0.05 c 7.47 3.11 14.2 7.66 19.83 13.3 l 0 0 c 5.66 5.65 10.22 12.42 13.34 19.95 c 3.01 7.24 4.66 15.18 4.66 23.49 c 0 8.32 -1.66 16.25 -4.66 23.5 l -0.05 0.11 c -3.12 7.47 -7.66 14.2 -13.3 19.83 l 0 0 c -5.65 5.66 -12.42 10.22 -19.95 13.34 c -7.24 3.01 -15.18 4.66 -23.49 4.66 c -8.31 0 -16.25 -1.66 -23.5 -4.66 l -0.11 -0.05 c -7.47 -3.11 -14.2 -7.66 -19.83 -13.29 L 18 104.87 C 12.34 99.21 7.78 92.45 4.66 84.94 C 1.66 77.69 0 69.76 0 61.44 s 1.66 -16.25 4.66 -23.5 l 0.05 -0.11 c 3.11 -7.47 7.66 -14.2 13.29 -19.83 L 18.01 18 c 5.66 -5.66 12.42 -10.22 19.94 -13.34 C 45.19 1.66 53.12 0 61.44 0 L 61.44 0 z M 16.99 94.47 l 0.24 -0.14 c 5.9 -3.29 21.26 -4.38 27.64 -8.83 c 0.47 -0.7 0.97 -1.72 1.46 -2.83 c 0.73 -1.67 1.4 -3.5 1.82 -4.74 c -1.78 -2.1 -3.31 -4.47 -4.77 -6.8 l -4.83 -7.69 c -1.76 -2.64 -2.68 -5.04 -2.74 -7.02 c -0.03 -0.93 0.13 -1.77 0.48 -2.52 c 0.36 -0.78 0.91 -1.43 1.66 -1.93 c 0.35 -0.24 0.74 -0.44 1.17 -0.59 c -0.32 -4.17 -0.43 -9.42 -0.23 -13.82 c 0.1 -1.04 0.31 -2.09 0.59 -3.13 c 1.24 -4.41 4.33 -7.96 8.16 -10.4 c 2.11 -1.35 4.43 -2.36 6.84 -3.04 c 1.54 -0.44 -1.31 -5.34 0.28 -5.51 c 7.67 -0.79 20.08 6.22 25.44 12.01 c 2.68 2.9 4.37 6.75 4.73 11.84 l -0.3 12.54 l 0 0 c 1.34 0.41 2.2 1.26 2.54 2.63 c 0.39 1.53 -0.03 3.67 -1.33 6.6 l 0 0 c -0.02 0.05 -0.05 0.11 -0.08 0.16 l -5.51 9.07 c -2.02 3.33 -4.08 6.68 -6.75 9.31 C 73.75 80 74 80.35 74.24 80.7 c 1.09 1.6 2.19 3.2 3.6 4.63 c 0.05 0.05 0.09 0.1 0.12 0.15 c 6.34 4.48 21.77 5.57 27.69 8.87 l 0.24 0.14 c 6.87 -9.22 10.93 -20.65 10.93 -33.03 c 0 -15.29 -6.2 -29.14 -16.22 -39.15 c -10 -10.03 -23.85 -16.23 -39.14 -16.23 c -15.29 0 -29.14 6.2 -39.15 16.22 C 12.27 32.3 6.07 46.15 6.07 61.44 C 6.07 73.82 10.13 85.25 16.99 94.47 L 16.99 94.47 L 16.99 94.47 z" stroke-linecap="round"/>
</g>
</svg>