<svg id="user" xmlns="http://www.w3.org/2000/svg" width="187.651" height="187.653" viewBox="0 0 187.651 187.653">
  <g id="Elipse_5" data-name="Elipse 5" fill="#e8eff7" stroke="#186aa5" stroke-width="4">
    <ellipse cx="93.826" cy="93.827" rx="93.826" ry="93.827" stroke="none"/>
    <ellipse cx="93.826" cy="93.827" rx="91.826" ry="91.827" fill="none"/>
  </g>
  <g id="tools" transform="translate(45.636 44.242)">
    <path id="Trazado_38" data-name="Trazado 38" d="M97.119,50.689A48.526,48.526,0,0,1,58.294,98.232a48.753,48.753,0,0,1-9.686.77,48.736,48.736,0,0,1-10.115-.858A48.13,48.13,0,0,1,29.07,95.1,49.3,49.3,0,0,1,19.1,89a47.821,47.821,0,0,1-9.768-9.832A48.512,48.512,0,1,1,97.119,50.689Zm0,0" transform="translate(-0.097 0)" fill="#c0fbff"/>
    <path id="Trazado_39" data-name="Trazado 39" d="M25.111,40.7H13.231a3.96,3.96,0,0,1-3.96-3.961l9.06-14.5a.99.99,0,0,1,1.679,0l9.061,14.5A3.961,3.961,0,0,1,25.111,40.7Zm0,0" transform="translate(-0.097 0)" fill="#ffe49f"/>
    <path id="Trazado_40" data-name="Trazado 40" d="M25.111,40.7H19.963A3.96,3.96,0,0,1,16,36.742l6.534-10.454,6.535,10.454A3.961,3.961,0,0,1,25.111,40.7Zm0,0" transform="translate(-0.097 0)" fill="#fff5f5"/>
    <path id="Trazado_41" data-name="Trazado 41" d="M29.072,78.323H9.271V36.742h19.8Zm0,0" transform="translate(-0.097 0)" fill="#ffcf48"/>
    <path id="Trazado_42" data-name="Trazado 42" d="M16,78.323H9.271V36.742H16Zm0,0" transform="translate(-0.097 0)" fill="#fa0"/>
    <path id="Trazado_43" data-name="Trazado 43" d="M14.91,27.72l3.422-5.474a.99.99,0,0,1,1.679,0l3.422,5.474Zm0,0" transform="translate(-0.097 0)" fill="#024c67"/>
    <path id="Trazado_44" data-name="Trazado 44" d="M29.072,79.149V95.1A48.7,48.7,0,0,1,9.333,79.163a1.98,1.98,0,0,1,.383-3.922h18.91a1.979,1.979,0,0,1,.446,3.908Zm0,0" transform="translate(-0.097 0)" fill="#7ed4f2"/>
    <path id="Trazado_45" data-name="Trazado 45" d="M16,86.608a48.781,48.781,0,0,1-6.675-7.446,1.975,1.975,0,0,1-1.589-2.056,2.023,2.023,0,0,1,2.041-1.866H16a1.98,1.98,0,0,0-1,3.688,2,2,0,0,1,1,1.72Zm0,0" transform="translate(-0.097 0)" fill="#50b0d6"/>
    <path id="Trazado_46" data-name="Trazado 46" d="M84.2,25.288l-1.626.939V65.341a.341.341,0,0,1-.341.341h-8.38a.341.341,0,0,1-.341-.341V26.227l-1.625-.939a4.419,4.419,0,0,1-1.938-5.352L77.008.724a1.1,1.1,0,0,1,2.075,0L86.14,19.936A4.42,4.42,0,0,1,84.2,25.288ZM54.788,10.052a1.165,1.165,0,0,0-1.738,1.013V22.341A4.729,4.729,0,0,1,48.563,27.1a4.655,4.655,0,0,1-4.825-4.652V11.066A1.166,1.166,0,0,0,42,10.052,13.024,13.024,0,0,0,35.359,21.41v1.974a13.04,13.04,0,0,0,8.5,12.224V98.66A.341.341,0,0,0,44.2,99h8.381a.341.341,0,0,0,.341-.341V35.608a13.04,13.04,0,0,0,8.5-12.224V21.41A13.027,13.027,0,0,0,54.788,10.052Zm0,0" transform="translate(-0.097)" fill="#50b0d6"/>
    <path id="Trazado_47" data-name="Trazado 47" d="M61.428,21.41v1.779a13.27,13.27,0,0,1-8.5,12.4v20a2.372,2.372,0,0,1-2.277,2.4,2.321,2.321,0,0,1-2.364-2.32V39.087a2.965,2.965,0,0,0-2.394-2.912,12.962,12.962,0,0,1-5.737-2.693,4.56,4.56,0,0,1,5.565-7.22,4.639,4.639,0,0,0,2.721.845,4.775,4.775,0,0,0,4.61-4.767V11.065a1.163,1.163,0,0,1,1.725-1.021A13.027,13.027,0,0,1,61.428,21.41ZM86.14,19.936,79.082.724A1.09,1.09,0,0,0,77.934.008V45.765a2.321,2.321,0,0,0,4.642,0V26.226l1.626-.938A4.42,4.42,0,0,0,86.14,19.936Zm0,0" transform="translate(-0.097 0)" fill="#7ed4f2"/>
    <path id="Trazado_48" data-name="Trazado 48" d="M16.894,83.161v3.961a2.071,2.071,0,0,1-.019.258,48.737,48.737,0,0,1-3.941-3.818v-.4a1.98,1.98,0,1,1,3.96,0Zm6.534-1.98a1.98,1.98,0,0,0-1.98,1.98v3.961a1.98,1.98,0,0,0,3.961,0V83.161A1.98,1.98,0,0,0,23.428,81.181Zm0,0" transform="translate(-0.097 0)" fill="#08c"/>
    <path id="Trazado_49" data-name="Trazado 49" d="M87.5,57.9H86.431a5.918,5.918,0,0,1,1.514,3.96v17.22A48.666,48.666,0,0,1,68.144,95.1V61.863a5.918,5.918,0,0,1,1.514-3.96H68.59a1.98,1.98,0,1,1,0-3.96H87.5a1.98,1.98,0,0,1,0,3.96Zm-29.652,5.94H38.939a1.98,1.98,0,1,0,0,3.96h1.069a5.915,5.915,0,0,0-1.514,3.961V98.142a48.872,48.872,0,0,0,19.8.09V71.764A5.918,5.918,0,0,0,56.78,67.8h1.068a1.98,1.98,0,1,0,0-3.96Zm0,0" transform="translate(-0.097 0)" fill="#ff895a"/>
    <path id="Trazado_50" data-name="Trazado 50" d="M43.245,65.826a1.979,1.979,0,0,0,.979,1.707,2,2,0,0,1,1,1.72V99.083a48.486,48.486,0,0,1-6.732-.94V71.766a5.915,5.915,0,0,1,1.514-3.961H38.939a1.98,1.98,0,0,1-1.975-2.112,2.025,2.025,0,0,1,2.043-1.848h6.219A1.981,1.981,0,0,0,43.245,65.826ZM74,57.275c-.637-.436-1.1-.923-1.1-1.349a1.981,1.981,0,0,1,1.981-1.98H68.658a2.026,2.026,0,0,0-2.044,1.848,1.981,1.981,0,0,0,1.976,2.112h1.068a5.917,5.917,0,0,0-1.514,3.96V95.1a48.342,48.342,0,0,0,6.732-3.625V58.917A1.994,1.994,0,0,0,74,57.275Zm0,0" transform="translate(-0.097 0)" fill="#ff6466"/>
    <path id="Trazado_51" data-name="Trazado 51" d="M46.117,73.743V99.136q-2-.1-3.96-.363V73.743a1.98,1.98,0,0,1,3.96,0Zm6.534-1.98a1.98,1.98,0,0,0-1.98,1.98V99.156q2-.083,3.961-.328V73.743A1.98,1.98,0,0,0,52.65,71.763Zm29.651-9.9a1.98,1.98,0,0,0-1.98,1.98V87.4a48.619,48.619,0,0,0,3.96-3.839V63.843A1.98,1.98,0,0,0,82.3,61.863Zm-8.514,0a1.98,1.98,0,0,0-1.98,1.98V93.3q2.041-1.114,3.961-2.413V63.843A1.98,1.98,0,0,0,73.787,61.863Zm0,0" transform="translate(-0.097 0)" fill="#ff393a"/>
  </g>
</svg>
