<svg id="user" xmlns="http://www.w3.org/2000/svg" width="187.651" height="187.653" viewBox="0 0 187.651 187.653">
  <g id="Elipse_5" data-name="Elipse 5" fill="#e8eff7" stroke="#186aa5" stroke-width="4">
    <ellipse cx="93.826" cy="93.827" rx="93.826" ry="93.827" stroke="none"/>
    <ellipse cx="93.826" cy="93.827" rx="91.826" ry="91.827" fill="none"/>
  </g>
  <g id="payment-method" transform="translate(44.547 44.246)">
    <path id="Trazado_11" data-name="Trazado 11" d="M20.8,72.079V87.441c8.75.386,6.225,1.932,21.449,8.777a14.408,14.408,0,0,0,11.209-.191l.009,0L83.373,85.315c.973-.448,5.882-3.115,3.946-8.083-2.264-5.3-8.089-3.088-8.578-2.929L63.127,78.62" transform="translate(0 -0.005)" fill="#eac092"/>
    <g id="Grupo_41" data-name="Grupo 41" transform="translate(20.797 61.981)">
      <path id="Trazado_12" data-name="Trazado 12" d="M38.463,78.506l17.389,5.51a5.713,5.713,0,0,0,7.057-3.932h0c.863-3.035-.9-6.194-4.375-7.485L43.108,67.364s-3.294-5.379-11.135-5.379c-4.952,0-9.22,4-11.175,7.505v7" transform="translate(-20.797 -61.985)" fill="#fedbab"/>
    </g>
    <path id="Trazado_13" data-name="Trazado 13" d="M31.533,78.247a1.908,1.908,0,0,1-.378-.039,1.877,1.877,0,0,1-.364-.11,1.954,1.954,0,0,1-.333-.178,1.883,1.883,0,0,1-.535-.535,1.791,1.791,0,0,1-.178-.335,1.82,1.82,0,0,1-.11-.362,1.861,1.861,0,0,1,0-.756,1.877,1.877,0,0,1,.11-.364,1.91,1.91,0,0,1,.713-.868,1.966,1.966,0,0,1,.333-.178,1.877,1.877,0,0,1,.364-.11,1.908,1.908,0,0,1,.756,0,1.819,1.819,0,0,1,.362.11,1.912,1.912,0,0,1,.335.178,1.883,1.883,0,0,1,.535.535,1.966,1.966,0,0,1,.178.333,2.022,2.022,0,0,1,.11.364,1.861,1.861,0,0,1,0,.756,1.957,1.957,0,0,1-.11.362,1.912,1.912,0,0,1-.178.335,1.883,1.883,0,0,1-.535.535,1.913,1.913,0,0,1-.335.178,1.819,1.819,0,0,1-.362.11A1.908,1.908,0,0,1,31.533,78.247Z" transform="translate(0 -0.005)"/>
    <rect id="Rectángulo_51" data-name="Rectángulo 51" width="7.34" height="20.817" transform="translate(13.458 69.238)" fill="#eaecf0"/>
    <rect id="Rectángulo_52" data-name="Rectángulo 52" width="11.52" height="24.428" transform="translate(1.938 69.238)" fill="#3688c8"/>
    <path id="Trazado_14" data-name="Trazado 14" d="M89.124,76.528l-.023-.058c-1.783-4.173-5.966-5.715-10.915-4.025l-13.5,3.733a8.849,8.849,0,0,0-5.479-5.4l-.051-.018L44.319,65.729a15.3,15.3,0,0,0-12.346-5.681c-5.062,0-9.54,3.472-12.1,7.257H1.938A1.937,1.937,0,0,0,0,69.243V93.67a1.937,1.937,0,0,0,1.938,1.938h11.52a1.937,1.937,0,0,0,1.938-1.938V92h5.4a1.937,1.937,0,0,0,1.938-1.938V89.5c3.149.275,4.185.872,7.077,2.54a117.251,117.251,0,0,0,11.64,5.943l.085.036A17.392,17.392,0,0,0,47.771,99.2a15.444,15.444,0,0,0,6.419-1.374L84.026,87.139c.053-.019.105-.04.157-.064C87.034,85.763,91.283,82.066,89.124,76.528Zm-77.6,15.2H3.875V71.18H11.52Zm7.34-3.61H15.395V71.18H18.86Zm63.774-4.6L52.812,94.2l-.087.034-.078.034A12.558,12.558,0,0,1,43,94.431a112.234,112.234,0,0,1-11.249-5.746c-3.171-1.828-4.7-2.709-9.013-3.066V70.014c1.837-3.01,5.4-6.091,9.238-6.091,6.585,0,9.375,4.283,9.485,4.456a1.938,1.938,0,0,0,1.028.82l15.4,5.226c2.459.923,3.759,3.029,3.162,5.129a3.775,3.775,0,0,1-4.638,2.606l-17.359-5.5a1.938,1.938,0,0,0-1.171,3.694l17.389,5.51.055.017a7.6,7.6,0,0,0,5.816-.676,7.6,7.6,0,0,0,3.635-4.59q.067-.235.118-.471l14.547-4.03c2.1-.718,4.859-.976,6.087,1.852C86.8,81.285,83.493,83.112,82.634,83.521Z" transform="translate(0 -0.005)"/>
    <path id="Trazado_15" data-name="Trazado 15" d="M46.481,19.151,29.273,1.942,7.7,23.518,44.566,60.386l20.36-20.36" transform="translate(0 -0.005)" fill="#26cfad"/>
    <path id="Trazado_16" data-name="Trazado 16" d="M36.292,22.09h0l0-.012a9.107,9.107,0,1,0,9.728,9.314" transform="translate(0 -0.005)" fill="#ffd36c"/>
    <path id="Trazado_17" data-name="Trazado 17" d="M78.4,30.1V14.733c-8.75-.386-6.225-1.932-21.449-8.777a14.408,14.408,0,0,0-11.209.191l-.009,0L36.713,9.381l9.311,9.311" transform="translate(0 -0.005)" fill="#eac092"/>
    <g id="Grupo_42" data-name="Grupo 42" transform="translate(7.698 1.937)">
      <path id="Trazado_18" data-name="Trazado 18" d="M7.7,23.518,15.012,16.2a10.355,10.355,0,0,1,0,14.629Z" transform="translate(-7.698 -1.942)" fill="#00b192"/>
      <path id="Trazado_19" data-name="Trazado 19" d="M37.251,53.071a10.355,10.355,0,0,1,14.629,0l-7.314,7.314Z" transform="translate(-7.698 -1.942)" fill="#00b192"/>
      <path id="Trazado_20" data-name="Trazado 20" d="M21.958,9.256l7.314-7.314,7.314,7.314A10.355,10.355,0,0,1,21.958,9.256Z" transform="translate(-7.698 -1.942)" fill="#00b192"/>
      <path id="Trazado_21" data-name="Trazado 21" d="M56.422,35.272a10.357,10.357,0,0,0,2.405,10.853l6.1-6.1" transform="translate(-7.698 -1.942)" fill="#00b192"/>
    </g>
    <g id="Grupo_43" data-name="Grupo 43" transform="translate(36.075 17.934)">
      <path id="Trazado_22" data-name="Trazado 22" d="M60.738,23.668l-17.389-5.51a5.712,5.712,0,0,0-7.057,3.932h0c-.863,3.035.9,6.194,4.375,7.485L56.1,34.812l-.006,0s3.293,5.379,11.135,5.379c4.951,0,9.22-4,11.175-7.505v-7" transform="translate(-36.075 -17.938)" fill="#fedbab"/>
    </g>
    <path id="Trazado_23" data-name="Trazado 23" d="M67.668,27.8a1.909,1.909,0,0,1-.378-.039,1.956,1.956,0,0,1-.362-.11,1.912,1.912,0,0,1-.335-.178,1.883,1.883,0,0,1-.535-.535,1.912,1.912,0,0,1-.178-.335,1.82,1.82,0,0,1-.11-.362,1.861,1.861,0,0,1,0-.756,1.878,1.878,0,0,1,.11-.364,1.966,1.966,0,0,1,.178-.333,1.883,1.883,0,0,1,.535-.535,1.912,1.912,0,0,1,.335-.178,1.82,1.82,0,0,1,.362-.11,1.93,1.93,0,0,1,1.12.11,1.966,1.966,0,0,1,.333.178,1.937,1.937,0,0,1,.713.868,1.883,1.883,0,0,1,.112.364,1.957,1.957,0,0,1,0,.756,1.826,1.826,0,0,1-.112.362,1.791,1.791,0,0,1-.178.335,1.883,1.883,0,0,1-.535.535,1.966,1.966,0,0,1-.333.178,2.051,2.051,0,0,1-.362.11A1.943,1.943,0,0,1,67.668,27.8Z" transform="translate(0 -0.005)"/>
    <rect id="Rectángulo_53" data-name="Rectángulo 53" width="7.34" height="20.817" transform="translate(78.403 12.111)" fill="#eaecf0"/>
    <rect id="Rectángulo_54" data-name="Rectángulo 54" width="11.52" height="24.428" transform="translate(85.743 8.499)" fill="#3688c8"/>
    <path id="Trazado_24" data-name="Trazado 24" d="M97.263,6.566H85.743A1.937,1.937,0,0,0,83.806,8.5v1.673H78.4a1.937,1.937,0,0,0-1.938,1.938v.558c-3.149-.275-4.185-.872-7.077-2.54a117.239,117.239,0,0,0-11.64-5.943l-.085-.036a16.484,16.484,0,0,0-12.652.2l-7.8,2.792L30.643.572a1.938,1.938,0,0,0-2.74,0L6.327,22.148a1.922,1.922,0,0,0,0,2.74L43.2,61.756a2.093,2.093,0,0,0,2.74,0l19.7-19.7c.512.044,1.044.068,1.594.068,5.062,0,9.54-3.472,12.1-7.257H97.263A1.937,1.937,0,0,0,99.2,32.932V8.5A1.937,1.937,0,0,0,97.263,6.566ZM34.187,24.535a8.578,8.578,0,0,0,5.806,6.856l.051.018,3.874,1.315a7.17,7.17,0,1,1-9.731-8.189Zm3.876-7.565A7.6,7.6,0,0,0,34.906,20.3a11.043,11.043,0,1,0,12.7,13.67l6.542,2.22a12.37,12.37,0,0,0,2.052,9.82l-4.425,4.425a12.312,12.312,0,0,0-14.413,0L17.645,30.725a12.313,12.313,0,0,0,0-14.415l4.421-4.421a12.313,12.313,0,0,0,14.415,0l4.191,4.191A7.646,7.646,0,0,0,38.063,16.97ZM58.989,43.223a8.474,8.474,0,0,1-1.238-4.029,15.065,15.065,0,0,0,3.417,1.85ZM29.273,4.682,33.689,9.1a8.447,8.447,0,0,1-8.832,0ZM14.854,19.1a8.448,8.448,0,0,1,0,8.832l-4.416-4.416ZM44.566,57.646l-4.415-4.415a8.436,8.436,0,0,1,8.83,0ZM67.228,38.251a14.1,14.1,0,0,1-2.021-.142H65.2a11.1,11.1,0,0,1-7.177-3.928c-.04-.058-.208-.278-.233-.315a1.931,1.931,0,0,0-1.068-.888l-15.4-5.228c-2.458-.923-3.758-3.028-3.162-5.127v-.009a3.775,3.775,0,0,1,4.636-2.6l17.359,5.5a1.938,1.938,0,0,0,1.171-3.694L47.517,17.446l-.121-.121,0,0-7.147-7.147,6.143-2.2.067-.025.02-.008.078-.034A12.557,12.557,0,0,1,56.2,7.742a112.233,112.233,0,0,1,11.25,5.746c3.171,1.828,4.7,2.709,9.013,3.066V32.159C74.629,35.17,71.068,38.251,67.228,38.251Zm13.113-24.2h3.465V30.994H80.341ZM95.326,30.994H87.681V10.441h7.645Z" transform="translate(0 -0.005)"/>
  </g>
</svg>
