<svg id="user" xmlns="http://www.w3.org/2000/svg" width="187.651" height="187.653" viewBox="0 0 187.651 187.653">
  <g id="Elipse_5" data-name="Elipse 5" fill="#e8eff7" stroke="#186aa5" stroke-width="4">
    <ellipse cx="93.826" cy="93.827" rx="93.826" ry="93.827" stroke="none"/>
    <ellipse cx="93.826" cy="93.827" rx="91.826" ry="91.827" fill="none"/>
  </g>
  <g id="Filled_outline" data-name="Filled outline" transform="translate(44.547 44.242)">
    <rect id="Rectángulo_55" data-name="Rectángulo 55" width="51.254" height="14.88" rx="7.44" transform="translate(31.414 1.653)" fill="#2b78b7"/>
    <path id="Trazado_25" data-name="Trazado 25" d="M100.854,84.32v9.92a6.613,6.613,0,0,1-6.613,6.613H28.107V77.707H94.241a6.608,6.608,0,0,1,6.613,6.613Z" transform="translate(-3.307 -3.307)" fill="#d65246"/>
    <path id="Trazado_26" data-name="Trazado 26" d="M28.107,87.627H94.241a6.613,6.613,0,0,1,0,13.227H28.107Z" transform="translate(-3.307 -3.307)" fill="#a8352a"/>
    <g id="Grupo_44" data-name="Grupo 44" transform="translate(24.8 84.321)">
      <circle id="Elipse_37" data-name="Elipse 37" cx="6.613" cy="6.613" r="6.613" fill="#c7483c"/>
      <circle id="Elipse_38" data-name="Elipse 38" cx="6.613" cy="6.613" r="6.613" transform="translate(19.84)" fill="#c7483c"/>
      <circle id="Elipse_39" data-name="Elipse 39" cx="6.613" cy="6.613" r="6.613" transform="translate(39.68)" fill="#c7483c"/>
      <circle id="Elipse_40" data-name="Elipse 40" cx="6.613" cy="6.613" r="6.613" transform="translate(59.52)" fill="#c7483c"/>
    </g>
    <rect id="Rectángulo_56" data-name="Rectángulo 56" width="16.533" height="49.6" rx="8.267" transform="translate(4.96 26.454)" fill="#2b78b7"/>
    <path id="Trazado_27" data-name="Trazado 27" d="M66.134,41.334H92.587v29.76H66.134Z" transform="translate(-3.307 -3.307)" fill="#f9a40f"/>
    <path id="Trazado_28" data-name="Trazado 28" d="M66.134,41.334H92.587v9.92H66.134Z" transform="translate(-3.307 -3.307)" fill="#ffb431"/>
    <path id="Trazado_29" data-name="Trazado 29" d="M76.054,41.334h6.613V57.867H76.054Z" transform="translate(-3.307 -3.307)" fill="#f88400"/>
    <path id="Trazado_30" data-name="Trazado 30" d="M76.054,51.254h6.613v6.613H76.054Z" transform="translate(-3.307 -3.307)" fill="#ef7800"/>
    <path id="Trazado_31" data-name="Trazado 31" d="M35.63,7.357,10.664,32.323A8.184,8.184,0,1,0,22.237,43.9L47.2,18.931A8.184,8.184,0,1,0,35.63,7.357Z" transform="translate(-3.307 -3.307)" fill="#348ed8"/>
    <path id="Trazado_32" data-name="Trazado 32" d="M0,0H23.147V13.227H0Z" transform="translate(24.8 97.547) rotate(180)" fill="#348ed8"/>
    <path id="Trazado_33" data-name="Trazado 33" d="M4.96,87.627H28.107V74.4l-1.653-4.96V64.48a9.92,9.92,0,0,0-19.84,0v4.96L4.96,74.4Z" transform="translate(-3.307 -3.307)" fill="#348ed8"/>
    <circle id="Elipse_41" data-name="Elipse 41" cx="3.307" cy="3.307" r="3.307" transform="translate(9.92 57.867)" fill="#2b78b7"/>
    <circle id="Elipse_42" data-name="Elipse 42" cx="3.307" cy="3.307" r="3.307" transform="translate(34.72 6.613)" fill="#2b78b7"/>
    <circle id="Elipse_43" data-name="Elipse 43" cx="3.307" cy="3.307" r="3.307" transform="translate(9.92 31.414)" fill="#2b78b7"/>
    <path id="Trazado_34" data-name="Trazado 34" d="M66.134,34.72V47.947H62.827l-4.96-6.613V34.72Z" transform="translate(-3.307 -3.307)" fill="#348ed8"/>
    <path id="Trazado_35" data-name="Trazado 35" d="M61.174,28.107H97.547a3.307,3.307,0,0,1,3.307,3.307V34.72H57.867V31.414A3.307,3.307,0,0,1,61.174,28.107Z" transform="translate(-3.307 -3.307)" fill="#2b78b7"/>
    <path id="Trazado_36" data-name="Trazado 36" d="M92.587,34.72V47.947h3.307l4.96-6.613V34.72Z" transform="translate(-3.307 -3.307)" fill="#348ed8"/>
    <rect id="Rectángulo_57" data-name="Rectángulo 57" width="29.76" height="16.533" rx="8.267" transform="translate(67.787 31.414) rotate(-90)" fill="#348ed8"/>
    <circle id="Elipse_44" data-name="Elipse 44" cx="3.307" cy="3.307" r="3.307" transform="translate(72.747 6.613)" fill="#2b78b7"/>
    <path id="Trazado_37" data-name="Trazado 37" d="M56.214,95.894H52.907V92.587h3.307Zm-19.84-3.307H33.067v3.307h3.307Zm59.52,0H92.587v3.307h3.307Zm-19.84,0H72.747v3.307h3.307ZM84.32,66.134h3.307V62.827H84.32Zm-3.307,0V62.827H77.707v3.307ZM16.533,69.44a4.96,4.96,0,1,1,4.96-4.96,4.96,4.96,0,0,1-4.96,4.96Zm0-3.307A1.653,1.653,0,1,0,14.88,64.48,1.653,1.653,0,0,0,16.533,66.134ZM9.92,76.054h3.307V72.747H9.92ZM44.64,13.227a3.307,3.307,0,1,0-3.307,3.307,3.307,3.307,0,0,0,3.307-3.307Zm-31.414,24.8a3.307,3.307,0,1,0,3.307-3.307,3.307,3.307,0,0,0-3.307,3.307Zm89.28-6.613v9.92a1.653,1.653,0,0,1-.331.992l-4.96,6.613a1.653,1.653,0,0,1-1.323.661H94.241V62.827H90.934v-9.92H84.32v4.96a1.653,1.653,0,0,1-1.653,1.653H76.054A1.653,1.653,0,0,1,74.4,57.867v-4.96H67.787V69.44H90.934V66.134h3.307v4.96a1.653,1.653,0,0,1-1.653,1.653H66.134a1.653,1.653,0,0,1-1.653-1.653V49.6H62.827a1.653,1.653,0,0,1-1.323-.661l-4.96-6.613a1.653,1.653,0,0,1-.331-.992v-9.92a4.966,4.966,0,0,1,4.96-4.96H69.44V13.227a9.88,9.88,0,0,1,2.534-6.613h-10.8V18.187h4.96v3.307H46.978L23.406,45.066a9.825,9.825,0,0,1-13.486.392v9.533a11.536,11.536,0,0,1,13.227,0V47.947h3.307V58.526a11.5,11.5,0,0,1,1.653,5.954v4.691l1.569,4.705a1.659,1.659,0,0,1,.085.523v1.653h64.48a8.276,8.276,0,0,1,8.267,8.267v9.92a8.276,8.276,0,0,1-8.267,8.267H4.96a1.653,1.653,0,0,1-1.653-1.653V81.014H6.613v4.96H9.92V79.36h3.307v6.613H26.453v-11.3l-1.569-4.705a1.659,1.659,0,0,1-.085-.523V64.48a8.267,8.267,0,1,0-16.533,0v4.96a1.659,1.659,0,0,1-.085.523L6.613,74.669v3.038H3.307V74.4a1.659,1.659,0,0,1,.085-.523L4.96,69.172V64.48a11.5,11.5,0,0,1,1.653-5.954s.013-20.915.015-20.956a9.843,9.843,0,0,1,3.835-7.385l7.277-7.277,2.338,2.338-8.246,8.246A6.593,6.593,0,0,0,16.451,44.64a6.487,6.487,0,0,0,4.617-1.913L46.035,17.762A6.531,6.531,0,1,0,36.8,8.526L22.663,22.662l-2.339-2.338L34.46,6.188a9.773,9.773,0,0,1,6.956-2.882H79.36a9.931,9.931,0,0,1,9.92,9.92V26.453h8.267a4.966,4.966,0,0,1,4.96,4.96ZM26.453,89.28H13.227v6.613H9.92V89.28H6.613V99.2h19.84Zm19.84,4.96a8.223,8.223,0,0,1,1.658-4.96H41.329a8.249,8.249,0,0,1,0,9.92h6.622a8.223,8.223,0,0,1-1.658-4.96Zm19.84,0a8.223,8.223,0,0,1,1.658-4.96H61.169a8.249,8.249,0,0,1,0,9.92h6.622A8.223,8.223,0,0,1,66.134,94.241Zm19.84,0a8.223,8.223,0,0,1,1.658-4.96H81.009a8.249,8.249,0,0,1,0,9.92h6.622a8.223,8.223,0,0,1-1.658-4.96Zm9.92-8.1A8.235,8.235,0,0,1,99.2,87.632V84.32a4.968,4.968,0,0,0-3.307-4.676Zm-1.653,3.14a4.96,4.96,0,1,0,4.96,4.96A4.96,4.96,0,0,0,94.241,89.28Zm-8.267-3.307h6.613V79.36H85.974Zm-9.92,0h6.613V79.36H76.054ZM74.4,89.28a4.96,4.96,0,1,0,4.96,4.96A4.96,4.96,0,0,0,74.4,89.28Zm-8.267-3.307h6.613V79.36H66.134Zm-9.92,0h6.613V79.36H56.214ZM54.56,89.28a4.96,4.96,0,1,0,4.96,4.96A4.96,4.96,0,0,0,54.56,89.28Zm-8.267-3.307h6.613V79.36H46.294Zm-9.92,0h6.613V79.36H36.374Zm-6.613,0h3.307V79.36H29.76Zm0,8.267a4.96,4.96,0,1,0,4.96-4.96A4.96,4.96,0,0,0,29.76,94.241ZM57.867,6.613h-9.1a9.834,9.834,0,0,1,1.1,11.573h8Zm14.88,16.533H85.974v-9.92a6.613,6.613,0,1,0-13.227,0Zm0,3.307a6.613,6.613,0,1,0,13.227,0Zm-8.267,9.92H59.52v4.409l4.133,5.511h.827Zm7.494-3.307a9.929,9.929,0,0,1-1.965-3.307H61.174a1.655,1.655,0,0,0-1.653,1.653v1.653Zm2.426,9.92H67.787V49.6H74.4Zm6.613,9.92H77.707v3.307h3.307Zm0-9.92H77.707V49.6h3.307Zm9.92,0H84.32V49.6h6.613Zm0-6.613H67.787V39.68H90.934Zm8.267,0h-4.96v9.92h.827L99.2,40.782Zm0-4.96a1.655,1.655,0,0,0-1.653-1.653H88.712a9.929,9.929,0,0,1-1.965,3.307H99.2ZM79.36,9.92a3.307,3.307,0,1,0,3.307,3.307A3.307,3.307,0,0,0,79.36,9.92ZM35.889,17.7l-2.338-2.338-2.273,2.273,2.338,2.338ZM18.671,30.244l2.338,2.338L31.343,22.249,29,19.911Z" transform="translate(-3.307 -3.307)"/>
  </g>
</svg>
